<?xml version="1.0" standalone="no"?>
<!DOCTYPE svg PUBLIC "-//W3C//DTD SVG 1.1//EN" "http://www.w3.org/Graphics/SVG/1.1/DTD/svg11.dtd" >
<svg xmlns="http://www.w3.org/2000/svg">
<metadata>
Created by FontForge 20120731 at Tue Apr 19 11:42:31 2016
 By admin
</metadata>
<defs>
<font id="iconfont" horiz-adv-x="1024" >
  <font-face 
    font-family="iconfont"
    font-weight="500"
    font-stretch="normal"
    units-per-em="1024"
    panose-1="2 0 6 3 0 0 0 0 0 0"
    ascent="896"
    descent="-128"
    x-height="792"
    bbox="5 -132.536 1019 848"
    underline-thickness="50"
    underline-position="-100"
    unicode-range="U+0078-E615"
  />
<missing-glyph horiz-adv-x="374" 
d="M34 0v682h272v-682h-272zM68 34h204v614h-204v-614z" />
    <glyph glyph-name=".notdef" horiz-adv-x="374" 
d="M34 0v682h272v-682h-272zM68 34h204v614h-204v-614z" />
    <glyph glyph-name=".null" horiz-adv-x="0" 
 />
    <glyph glyph-name="nonmarkingreturn" horiz-adv-x="341" 
 />
    <glyph glyph-name="x" unicode="x" horiz-adv-x="1001" 
d="M281 543q-27 -1 -53 -1h-83q-18 0 -36.5 -6t-32.5 -18.5t-23 -32t-9 -45.5v-76h912v41q0 16 -0.5 30t-0.5 18q0 13 -5 29t-17 29.5t-31.5 22.5t-49.5 9h-133v-97h-438v97zM955 310v-52q0 -23 0.5 -52t0.5 -58t-10.5 -47.5t-26 -30t-33 -16t-31.5 -4.5q-14 -1 -29.5 -0.5
t-29.5 0.5h-32l-45 128h-439l-44 -128h-29h-34q-20 0 -45 1q-25 0 -41 9.5t-25.5 23t-13.5 29.5t-4 30v167h911zM163 247q-12 0 -21 -8.5t-9 -21.5t9 -21.5t21 -8.5q13 0 22 8.5t9 21.5t-9 21.5t-22 8.5zM316 123q-8 -26 -14 -48q-5 -19 -10.5 -37t-7.5 -25t-3 -15t1 -14.5
t9.5 -10.5t21.5 -4h37h67h81h80h64h36q23 0 34 12t2 38q-5 13 -9.5 30.5t-9.5 34.5q-5 19 -11 39h-368zM336 498v228q0 11 2.5 23t10 21.5t20.5 15.5t34 6h188q31 0 51.5 -14.5t20.5 -52.5v-227h-327z" />
    <glyph glyph-name="uniE600" unicode="&#xe600;" 
d="M512 -45q117 0 216 57.5t156.5 156.5t57.5 216t-57.5 216t-156.5 156.5t-216 57.5t-216 -57.5t-156.5 -156.5t-57.5 -216t57.5 -216t156.5 -156.5t216 -57.5zM512 480l-186 -188q-7 -8 -17 -8.5t-17 6t-6 16.5t8 18l198 200q9 9 20 8q12 1 20 -8l198 -200q8 -8 8.5 -18
t-6 -16.5t-17 -6t-17.5 8.5z" />
    <glyph glyph-name="uniE601" unicode="&#xe601;" 
d="M730 -92l-394 392l394 392q8 7 8.5 17.5t-6 17t-17 6t-18.5 -8.5l-406 -404q-8 -8 -8 -20t9 -20l405 -404q8 -8 18.5 -8.5t17 6t6 17t-8.5 17.5z" />
    <glyph glyph-name="uniE602" unicode="&#xe602;" horiz-adv-x="1000" 
d="M500 396zM75 396q0 115 57 213t155 155t213 57t213 -57t155 -155t57 -213t-57 -213t-155 -155t-213 -57t-213 57t-155 155t-57 213z" />
    <glyph glyph-name="uniE603" unicode="&#xe603;" 
d="M513.5 830q-90.5 0 -173.5 -35.5t-142.5 -95.5t-95 -143t-35.5 -173.5t35.5 -173t95 -142.5t142.5 -95.5t173.5 -35.5t173.5 35.5t142.5 95.5t95 142.5t35.5 173t-35.5 173.5t-95 143t-142.5 95.5t-173.5 35.5zM513.5 -17q-108.5 0 -200.5 53.5t-145.5 145.5t-53.5 200.5
t53.5 200.5t145.5 145.5t200.5 53.5t200.5 -53.5t145.5 -145.5t53.5 -200.5t-53.5 -200.5t-145.5 -145.5t-200.5 -53.5z" />
    <glyph glyph-name="uniE604" unicode="&#xe604;" 
d="M289.5 -126.5q6.5 -6.5 16.5 -6t18 8.5l406 404q9 8 8 20q1 12 -8 20l-406 404q-8 8 -18 8.5t-16.5 -6t-6 -17t8.5 -17.5l394 -392l-394 -392q-8 -7 -8.5 -17.5t6 -17z" />
    <glyph glyph-name="uniE605" unicode="&#xe605;" 
d="M1010 73l-474 474v1h-1q-10 10 -23 10t-23 -10h-1v-1l-474 -474q-9 -9 -9 -22.5t9.5 -23t22.5 -9.5t23 10l452 452l452 -452q10 -10 23 -10t22.5 9.5t9.5 23t-9 22.5z" />
    <glyph glyph-name="uniE606" unicode="&#xe606;" 
d="M978.5 628q-8.5 9 -21 9t-21.5 -9l-424 -424l-424 424q-9 9 -21.5 9t-21 -9t-8.5 -21.5t8 -20.5l445 -445v-1h1q9 -9 21.5 -9t20.5 9h1v1l445 445q8 8 8 20.5t-8.5 21.5z" />
    <glyph glyph-name="uniE607" unicode="&#xe607;" 
d="M72 823v-114l337 -378v-310l206 -78v362l337 404v114h-880zM900 735l-336 -404v-310l-104 26v310l-336 378v36h776v-36z" />
    <glyph glyph-name="uniE608" unicode="&#xe608;" 
d="M921 12l-253 254q76 91 76 209q0 89 -43.5 164t-118.5 118.5t-163.5 43.5t-163.5 -43.5t-119 -118.5t-44 -163.5t44 -163.5t119 -119t163 -44q122 0 214 80l253 -254q7 -8 18 -8t18.5 7.5t7.5 18.5t-8 19zM418.5 201q-113.5 0 -194 80.5t-80.5 194t80.5 193.5t194 80
t193.5 -80t80 -193.5t-80 -194t-193.5 -80.5z" />
    <glyph glyph-name="uniE609" unicode="&#xe609;" 
d="M824 427l-307 320l-317 -319q-7 -8 -7 -18.5t7.5 -18t18.5 -7.5t18 7l254 256v-617q0 -11 7.5 -18.5t18 -7.5t18.5 7.5t8 18.5v616l243 -254q8 -8 19 -8t18 7q8 7 8 18t-7 18z" />
    <glyph glyph-name="uniE60B" unicode="&#xe60b;" 
d="M456 107q-26 0 -32 -13t13 -32l22 -22q19 -19 46 -19t46 19l22 22q19 19 13 32t-32 13h-98zM953 434l-258 257q-5 6 -13 6q-7 0 -12 -4.5t-5 -12.5q0 -7 6 -12l258 -258q10 -10 10 -24t-10 -24l-395 -395q-9 -9 -23.5 -9t-24.5 9l-394 395q-10 10 -10 24t10 24l394 395
q10 10 24 10t24 -10l77 -77q5 -6 13 -6q7 0 12 5t5 12t-6 12l-77 78q-20 19 -48 19t-48 -19l-394 -395q-20 -20 -20 -48t20 -48l394 -394q20 -20 48 -20t48 20l395 394q20 20 20 48t-20 48zM510 719q-35 0 -59.5 -25t-24.5 -60t24.5 -60t59.5 -25t60 25t25 60t-25 60t-60 25
zM510 583q-21 0 -36 15t-15 36t15 36t36 15t36 -15t15 -36t-15 -36t-36 -15z" />
    <glyph glyph-name="uniE60C" unicode="&#xe60c;" 
d="M516 687q-36 0 -61.5 -25.5t-25.5 -61t25.5 -61t61.5 -25.5t61.5 25.5t25.5 61t-25.5 61t-61.5 25.5zM516.5 547q-22.5 0 -38.5 15.5t-16 37.5t16 37.5t38.5 15.5t38 -15.5t15.5 -37.5t-15.5 -37.5t-38 -15.5zM624 7h30q27 0 45.5 18.5t18.5 44.5v31q0 26 -13 31.5
t-32 -13.5l-68 -67q-18 -19 -13 -32t32 -13zM775 611l-97 96q-5 7 -13 7q-7 0 -12 -5t-5 -12t7 -13l96 -96q8 -8 13.5 -21.5t5.5 -23.5v-502q0 -31 -22 -53t-53 -22h-366q-31 0 -53 22t-22 53v502q0 10 5.5 23.5t13.5 21.5l216 216q10 9 23 9t23 -9l59 -59q0 -1 1 -1
q5 -7 13 -7q7 0 12 4.5t5 11.5q0 8 -6 13l-61 61q-19 19 -46 19t-46 -19l-217 -216q-12 -12 -20 -31.5t-8 -36.5v-503q0 -44 31.5 -76t76.5 -32h366q45 0 76.5 32t31.5 76v503q0 17 -8 36.5t-20 31.5z" />
    <glyph glyph-name="uniE60D" unicode="&#xe60d;" 
d="M423.5 48q-7.5 0 -12.5 5l-180 180q-5 6 -5 13t5 12.5t12.5 5.5t12.5 -5l168 -168l362 362q6 6 13 6t12.5 -5.5t5.5 -13t-5 -12.5l-375 -375q-6 -5 -13.5 -5zM888 -67h-752q-30 0 -51.5 22t-21.5 52v660q0 31 21.5 52.5t51.5 21.5h145q8 0 13 -5t5 -12.5t-5 -13t-13 -5.5
h-145q-15 0 -26.5 -11t-11.5 -27v-660q0 -16 11.5 -27t26.5 -11h752q16 0 27 11t11 27v350q0 7 5 12.5t12.5 5.5t13 -5.5t5.5 -12.5v-350q0 -30 -21.5 -52t-52.5 -22zM627 706h-223q-7 0 -12.5 5.5t-5.5 12.5t5.5 12.5t12.5 5.5h223q7 0 12.5 -5.5t5.5 -12.5t-5.5 -12.5
t-12.5 -5.5zM945 537h-865q-8 0 -13 5t-5 12.5t5 12.5t13 5h846v95q0 16 -11 27t-27 11h-147q-8 0 -13 5.5t-5 13t5 12.5t13 5h147q31 0 52.5 -21.5t21.5 -52.5v-108q1 -2 1 -5q0 -7 -5.5 -12t-12.5 -5zM342 616q-27 0 -45.5 19t-18.5 46v87q0 27 18.5 46t45.5 19t45.5 -19
t18.5 -46v-87q0 -27 -18.5 -46t-45.5 -19zM342 797q-12 0 -20.5 -8.5t-8.5 -20.5v-87q0 -12 8.5 -20.5t20.5 -8.5t20 8.5t8 20.5v87q0 12 -8 20.5t-20 8.5zM682.5 616q-26.5 0 -45.5 19t-19 46v87q0 27 19 46t45.5 19t45.5 -19t19 -46v-87q0 -27 -19 -46t-45.5 -19z
M682.5 797q-11.5 0 -20 -8.5t-8.5 -20.5v-87q0 -12 8.5 -20.5t20 -8.5t20 8.5t8.5 20.5v87q0 12 -8.5 20.5t-20 8.5zM963 456q0 -7 -5.5 -12.5t-13 -5.5t-12.5 5.5t-5 13t5 12.5t12.5 5t13 -5t5.5 -13z" />
    <glyph glyph-name="uniE60E" unicode="&#xe60e;" 
d="M493 -24h-235q-70 0 -119 49t-49 119v521q0 70 49 119.5t119 49.5h521q70 0 119.5 -49.5t49.5 -119.5v-235h-33v235q0 57 -39.5 96.5t-96.5 39.5h-521q-56 0 -96 -39.5t-40 -96.5v-521q0 -56 40 -96t96 -40h235v-32zM243 523h179v-33h-179v33zM243 672h552v-32h-552v32z
M969 -15h1l-110 109q50 61 53 138q2 45 -14.5 89.5t-47.5 77.5q-56 61 -137 71q-15 2 -30 2q-79 0 -140 -48q-72 -54 -86 -143q-15 -83 27 -154q28 -49 75 -79q43 -28 93 -35q15 -2 31 -2q72 0 131 42l109 -109l3 -3q9 -7 20 -7q12 0 21 9t9 22q0 11 -8 20zM717 49
q-43 -8 -86 4q-40 11 -73 39t-51 67q-20 42 -17.5 91.5t26.5 90.5q22 37 58 62t78 32h4l6 1q11 1 21 1q44 0 82 -18q72 -33 100 -107q15 -38 13 -80t-20 -78q-20 -41 -58 -69.5t-83 -35.5z" />
    <glyph glyph-name="uniE60F" unicode="&#xe60f;" 
d="M961.5 602q-7.5 1 -13.5 -3t-7 -11l-14 -73q-38 111 -126 189q-67 58 -151 86q-81 26 -166 20.5t-162 -43.5q-79 -38 -137 -105q-68 -78 -94 -176q-2 -7 2 -13.5t11 -8.5t13.5 2t8.5 11q23 90 85 162q54 61 127 97q70 34 148.5 39.5t152.5 -19.5q77 -25 138 -79
q113 -98 134 -247q1 -7 7 -12q4 -3 9 -4h3q15 0 17 14l29 153q1 8 -3 14t-11.5 7zM924 283q-7 2 -13.5 -1.5t-8.5 -10.5q-23 -91 -85 -162q-54 -62 -127 -97q-70 -34 -148.5 -39.5t-152.5 18.5q-77 26 -138 79q-113 99 -134 247q-1 8 -7 12q-4 4 -9 4q-7 2 -13 -2.5
t-7 -11.5l-29 -153q-1 -7 3 -13t12 -7q1 -1 3 -1q15 0 17 15l14 73q37 -112 126 -189q67 -59 151 -86q66 -22 136 -22q15 0 30 1q85 6 162 43q79 39 137 106q68 77 94 176q1 7 -2.5 13t-10.5 8zM414.5 478q7.5 0 12.5 5t5 12.5t-5 12.5l-93 93q-5 5 -12.5 5t-12.5 -5
t-5 -12.5t5 -12.5l93 -93q5 -5 12.5 -5zM629 483l93 93q5 5 5 12.5t-5.5 12.5t-12.5 5t-13 -5l-92 -93q-5 -5 -5 -12.5t5 -12.5t12.5 -5t12.5 5zM297 307q-8 0 -13 -5.5t-5 -12.5t5 -12.5t13 -5.5h199v-161q0 -7 5 -12.5t12.5 -5.5t12.5 5.5t5 12.5v161h200q8 0 13 5.5
t5 12.5t-5 12.5t-13 5.5h-200v122h200q8 0 13 5t5 12.5t-5 12.5t-13 5h-434q-8 0 -13 -5t-5 -12.5t5 -12.5t13 -5h199v-122h-199z" />
    <glyph glyph-name="uniE610" unicode="&#xe610;" 
d="M208 32q-27 0 -40 19q-14 22 0 60q6 17 14 31l263 430l1 8q0 97 68 165q69 69 166.5 69t166 -69t68.5 -166t-68.5 -166t-166.5 -69q-42 0 -82 15q-47 18 -84 54q-12 13 -22 27q-15 19 -25 40q-3 7 -0.5 13.5t9 9t13 0.5t9.5 -9q8 -18 20 -35q9 -12 20 -22q31 -31 72 -47
q34 -12 70 -12q84 0 143 59t59 142t-59 142t-142.5 59t-142.5 -59t-59 -142v-1l-2 -17l-266 -437q-9 -15 -14 -31.5t-1 -22.5q12 -13 50 9l310 218q29 22 71 23q7 1 12 -4t5.5 -12t-4 -12t-11.5 -5q-33 -1 -54 -17l-311 -219q-31 -19 -56 -19zM168 -33q-12 0 -16 11
q-5 11 -3.5 24t3.5 21t7 17t7 12t4 4l25 -22q-20 -22 -11 -45q2 -6 -1 -12.5t-10 -8.5q-2 -1 -5 -1z" />
    <glyph glyph-name="uniE611" unicode="&#xe611;" 
d="M98 304h824q8 0 13 5.5t5 12.5t-5 12.5t-13 5.5h-24q-1 75 -30 144t-84 122q-71 71 -166 98q-2 43 -33 73.5t-74.5 30.5t-75 -30.5t-32.5 -73.5q-96 -27 -167 -98q-54 -53 -83.5 -122t-30.5 -144h-24q-7 0 -12.5 -5.5t-5.5 -12.5t5.5 -12.5t12.5 -5.5zM510.5 772
q26.5 0 46.5 -17t24 -43q-35 6 -71 6t-71 -6q5 26 25 43t46.5 17zM510 683q95 0 176 -46t128 -125t49 -172h-705q1 93 48.5 172t128 125t175.5 46zM922 178h-824q-7 0 -12.5 -5t-5.5 -12.5t5.5 -13t12.5 -5.5h824q8 0 13 5.5t5 13t-5 12.5t-13 5zM414 573q-75 -13 -128 -74
q-27 -30 -39 -59q-3 -6 -0.5 -13t9.5 -10q4 -1 7 -1q12 0 16 10l5 11q4 7 16.5 24t27.5 31t40 27.5t52 18.5q7 2 11.5 8t3 13t-7.5 11.5t-13 2.5z" />
    <glyph glyph-name="uniE612" unicode="&#xe612;" 
d="M512 834q-186 0 -318 -132t-132 -318t132 -318t318 -132t318 132t132 318t-132 318t-318 132zM512 -30q-171 0 -292.5 121.5t-121.5 292.5t121.5 292.5t292.5 121.5t292.5 -121.5t121.5 -292.5t-121.5 -292.5t-292.5 -121.5zM752 307v-21h-219v-78q0 -51 -59 -51h-44v23
h33q19 -1 28 7t8 25v74h-230v21h483zM305 423v110h127v52h-160v21h483v-21h-165v-52h127v-62q4 -50 -57 -48h-355zM385 258h34q-31 -76 -145 -94v18q92 24 111 76zM702 377v-22h-380v22h380zM339 512v-68h93v68h-93zM463 585v-52h95v52h-95zM463 512v-68h95v68h-95zM685 471
v41h-95v-68h68q27 0 27 27zM639 258q19 -52 111 -76v-19q-114 19 -145 95h34z" />
    <glyph glyph-name="uniE613" unicode="&#xe613;" 
d="M512 812q-88 0 -168.5 -34.5t-138.5 -92.5t-92 -138t-34 -168t34 -168.5t92 -138.5t138.5 -92.5t168.5 -34.5t168.5 34.5t138.5 92.5t92 138.5t34 168.5t-34 168t-92 138t-138.5 92.5t-168.5 34.5zM512 -7q-105 0 -194 51.5t-140.5 140.5t-51.5 193.5t51.5 193.5
t140.5 141t194 52t194 -52t140.5 -141t51.5 -193.5t-51.5 -193.5t-140.5 -140.5t-194 -51.5zM521 661h-47v-329h4l278 -113l17 44l-252 102v296z" />
    <glyph glyph-name="uniE614" unicode="&#xe614;" 
d="M863 84v1l-195 195q60 72 63 163q2 53 -17 105.5t-56 91.5q-66 72 -162 84q-17 2 -36 2q-94 0 -165 -56q-41 -31 -67.5 -75.5t-34.5 -94.5q-17 -97 32 -182q33 -57 88 -93q51 -33 111 -41q18 -3 36 -3q86 0 155 50l194 -195l4 -4q10 -8 23 -8q15 0 25.5 10.5t10.5 25.5
q0 14 -9 24zM666 351q-24 -49 -69 -82.5t-98 -42.5q-51 -9 -101 5q-48 13 -87 46.5t-59 78.5q-25 50 -22 109t32 106q25 45 68 74t92 37l5 1q4 0 8 1q13 1 24 1q52 0 98 -21q40 -19 71 -52t47 -75q17 -45 14.5 -94.5t-23.5 -91.5z" />
    <glyph glyph-name="uniE615" unicode="&#xe615;" 
d="M512 701q-131 0 -224 -93t-93 -224t93 -224t224 -93t224 93t93 224t-93 224t-224 93zM679 240l-23 -23l-144 144l-144 -144l-23 23l144 144l-144 144l23 23l144 -144l144 144l23 -23l-144 -144z" />
  </font>
</defs>
</svg>
